<?xml version="1.0" encoding="utf-8"?>
<!-- Generator: Adobe Illustrator 27.2.0, SVG Export Plug-In . SVG Version: 6.00 Build 0)  -->
<svg version="1.1" xmlns="http://www.w3.org/2000/svg" xmlns:xlink="http://www.w3.org/1999/xlink" x="0px" y="0px"
	 viewBox="0 0 2000 2000" style="enable-background:new 0 0 2000 2000;" xml:space="preserve">
<style type="text/css">
	.st0{fill:#FFFFFF;}
</style>
<g id="Layer_2">
	<rect class="st0" width="2000" height="2000"/>
</g>
<g id="Layer_1">
	<path d="M347.05,645.33h148.97v68.75h-59.63v65.15h55.81v65.36h-55.81v75.54h65.57v68.75H347.05V645.33z"/>
	<path d="M616.97,645.33v274.8h54.32v68.75H527.63V645.33H616.97z"/>
	<path d="M896.02,645.33v229.6c0,26.03-0.85,44.32-2.55,54.85c-1.7,10.54-6.72,21.36-15.07,32.47c-8.35,11.11-19.35,19.52-33,25.25
		c-13.65,5.73-29.75,8.59-48.28,8.59c-20.51,0-38.62-3.4-54.32-10.19s-27.45-15.63-35.23-26.53c-7.78-10.89-12.38-22.39-13.79-34.48
		c-1.42-12.1-2.12-37.52-2.12-76.29V645.33h89.34v257.62c0,15,0.81,24.58,2.44,28.75c1.62,4.17,4.91,6.26,9.87,6.26
		c5.66,0,9.3-2.3,10.93-6.9c1.62-4.6,2.44-15.45,2.44-32.57V645.33H896.02z"/>
	<path d="M1118.42,749.48h-82.97v-25.46c0-11.88-1.06-19.45-3.18-22.71c-2.12-3.25-5.66-4.88-10.61-4.88
		c-5.38,0-9.44,2.19-12.2,6.58s-4.14,11.04-4.14,19.96c0,11.47,1.55,20.1,4.65,25.91c2.96,5.81,11.38,12.81,25.25,21
		c39.77,23.6,64.81,42.98,75.14,58.11c10.33,15.14,15.49,39.54,15.49,73.21c0,24.48-2.86,42.51-8.59,54.11
		c-5.73,11.6-16.8,21.33-33.21,29.18c-16.41,7.85-35.51,11.78-57.29,11.78c-23.91,0-44.32-4.53-61.22-13.58
		c-16.91-9.05-27.98-20.58-33.21-34.59c-5.24-14.01-7.85-33.88-7.85-59.63v-22.49h82.97v41.8c0,12.87,1.17,21.15,3.5,24.83
		c2.33,3.68,6.47,5.52,12.41,5.52s10.36-2.33,13.26-7c2.9-4.67,4.35-11.6,4.35-20.8c0-20.23-2.76-33.46-8.28-39.68
		c-5.66-6.22-19.6-16.62-41.8-31.19c-22.21-14.71-36.92-25.39-44.14-32.04c-7.21-6.65-13.19-15.84-17.93-27.59
		c-4.74-11.74-7.11-26.74-7.11-44.99c0-26.31,3.36-45.55,10.08-57.72c6.72-12.17,17.58-21.68,32.57-28.54
		c14.99-6.86,33.1-10.29,54.32-10.29c23.2,0,42.97,3.75,59.31,11.25c16.34,7.5,27.16,16.94,32.47,28.33
		c5.31,11.39,7.96,30.74,7.96,58.04V749.48z"/>
	<path d="M1240.83,645.08v343.56h-89.34V645.08H1240.83z"/>
	<path d="M1490.82,645.33l-45.46,343.56h-135.7l-51.62-343.56h94.22c10.95,94.64,18.77,174.71,23.45,240.21
		c4.62-66.2,9.51-124.98,14.7-176.33l6.2-63.89H1490.82z"/>
	<path d="M1508.02,645.33h148.97v68.75h-59.63v65.15h55.81v65.36h-55.81v75.54h65.57v68.75h-154.91V645.33z"/>
	<path d="M554.18,1215.5c0,34.52-0.82,58.96-2.44,73.32c-1.63,14.36-6.72,27.48-15.28,39.36c-8.56,11.88-20.13,21.01-34.7,27.37
		c-14.57,6.37-31.55,9.55-50.93,9.55c-18.39,0-34.91-3.01-49.55-9.02c-14.64-6.01-26.42-15.03-35.33-27.06
		c-8.91-12.02-14.22-25.11-15.92-39.26c-1.7-14.14-2.55-38.9-2.55-74.27v-58.78c0-34.52,0.81-58.96,2.44-73.32
		c1.62-14.36,6.72-27.48,15.28-39.36c8.56-11.88,20.12-21.01,34.7-27.37c14.57-6.37,31.55-9.55,50.93-9.55
		c18.39,0,34.91,3.01,49.55,9.02c14.64,6.01,26.42,15.03,35.33,27.06c8.91,12.03,14.22,25.11,15.92,39.26
		c1.7,14.15,2.55,38.91,2.55,74.27V1215.5z M464.84,1102.61c0-15.99-0.89-26.21-2.65-30.66c-1.77-4.46-5.41-6.68-10.93-6.68
		c-4.67,0-8.24,1.8-10.72,5.41c-2.48,3.61-3.71,14.25-3.71,31.94v160.43c0,19.95,0.81,32.25,2.44,36.92c1.62,4.67,5.41,7,11.35,7
		c6.08,0,9.97-2.69,11.67-8.06c1.7-5.38,2.55-18.18,2.55-38.41V1102.61z"/>
	<path d="M784.57,1014.33v229.6c0,26.03-0.85,44.32-2.55,54.85c-1.7,10.54-6.72,21.36-15.07,32.47c-8.35,11.11-19.35,19.52-33,25.25
		c-13.65,5.73-29.75,8.59-48.28,8.59c-20.51,0-38.62-3.39-54.32-10.19c-15.7-6.79-27.45-15.63-35.23-26.53
		c-7.78-10.89-12.38-22.39-13.79-34.48c-1.42-12.1-2.12-37.52-2.12-76.29v-203.29h89.34v257.62c0,15,0.81,24.58,2.44,28.75
		c1.62,4.17,4.91,6.26,9.87,6.26c5.66,0,9.3-2.3,10.93-6.9c1.62-4.6,2.44-15.45,2.44-32.57v-253.16H784.57z"/>
	<path d="M999.82,1014.54v68.75h-53.05v274.8h-89.34v-274.8h-52.84v-68.75H999.82z"/>
	<path d="M1019.84,1014.54h89.97c24.33,0,43.04,1.91,56.13,5.73c13.08,3.82,22.92,9.34,29.5,16.55
		c6.58,7.21,11.04,15.95,13.37,26.21c2.33,10.26,3.5,26.14,3.5,47.64v29.92c0,21.93-2.26,37.92-6.79,47.96
		c-4.53,10.05-12.84,17.76-24.93,23.13c-12.1,5.38-27.91,8.06-47.43,8.06h-23.98v138.36h-89.34V1014.54z M1109.18,1073.32v87.43
		c2.55,0.14,4.74,0.21,6.58,0.21c8.2,0,13.9-2.02,17.08-6.05c3.18-4.03,4.77-12.41,4.77-25.15v-28.22c0-11.74-1.84-19.38-5.52-22.92
		C1128.42,1075.09,1120.78,1073.32,1109.18,1073.32z"/>
	<path d="M1442.34,1014.33v229.6c0,26.03-0.85,44.32-2.55,54.85c-1.7,10.54-6.72,21.36-15.07,32.47
		c-8.35,11.11-19.35,19.52-33,25.25c-13.65,5.73-29.75,8.59-48.28,8.59c-20.51,0-38.62-3.39-54.32-10.19
		c-15.7-6.79-27.45-15.63-35.23-26.53c-7.78-10.89-12.38-22.39-13.79-34.48c-1.42-12.1-2.12-37.52-2.12-76.29v-203.29h89.34v257.62
		c0,15,0.81,24.58,2.44,28.75c1.62,4.17,4.91,6.26,9.87,6.26c5.66,0,9.3-2.3,10.93-6.9c1.62-4.6,2.44-15.45,2.44-32.57v-253.16
		H1442.34z"/>
	<path d="M1663.24,1014.33v68.75h-53.05v274.8h-89.34v-274.8h-52.84v-68.75H1663.24z"/>
</g>
</svg>
